<svg xmlns="http://www.w3.org/2000/svg" xmlns:xlink="http://www.w3.org/1999/xlink" viewBox="0 0 111.45 148.61"><defs><clipPath id="a" transform="translate(0 0)"><rect width="111.45" height="148.61" fill="none"/></clipPath></defs><g clip-path="url(#a)"><g clip-path="url(#a)"><path d="M109.8,109.85,86.61,83.59H95.5a6.58,6.58,0,0,0,6-3.79,6.39,6.39,0,0,0-1-7L77.9,46.44h8.39a6.56,6.56,0,0,0,6-3.95,6.44,6.44,0,0,0-1.23-7l-32-34.1a4.79,4.79,0,0,0-6.77,0l-32,34.1a6.46,6.46,0,0,0-1.23,7,6.59,6.59,0,0,0,6.06,3.95h8.38L10.87,72.83a6.39,6.39,0,0,0-.95,7,6.58,6.58,0,0,0,6,3.79h8.89L1.65,109.85a6.42,6.42,0,0,0-1,7.05,6.73,6.73,0,0,0,6.09,3.84H46.44v7.1l-8.79,14a4.65,4.65,0,0,0,4.15,6.73H69.65a4.65,4.65,0,0,0,4.15-6.73l-8.79-14v-7.1h39.72a6.74,6.74,0,0,0,6.1-3.84,6.44,6.44,0,0,0-1-7.05" transform="translate(0 0)" fill="#379f9f"/></g></g></svg>