<svg xmlns="http://www.w3.org/2000/svg" viewBox="0 0 167.18 130.03"><path d="M92.88.55A81.59,81.59,0,0,0,83.59,0,83.41,83.41,0,0,0,14.11,37.15H92.88Zm-65,45.89H8.79A83.21,83.21,0,0,0,0,83.59H27.86Zm74.3-44.29v35h50.91A83.56,83.56,0,0,0,102.16,2.15Zm37.15,81.44h27.87a83.09,83.09,0,0,0-8.8-37.15H139.31Zm-18.57,18.57V130h37.15a9.28,9.28,0,0,0,9.29-9.29V92.88H119.43A37.46,37.46,0,0,1,120.74,102.16ZM130,46.44H37.15V83.59H51.6a36.82,36.82,0,0,1,64,0H130ZM0,120.74A9.28,9.28,0,0,0,9.29,130H46.44V102.16a37.93,37.93,0,0,1,1.3-9.28H0ZM83.59,74.3a27.87,27.87,0,0,0-27.86,27.86V130h55.72V102.16A27.87,27.87,0,0,0,83.59,74.3Z" fill="#379f9f"/></svg>