<svg xmlns="http://www.w3.org/2000/svg" viewBox="0 0 167.19 130.01"><path d="M81.38,33.73,27.87,77.8v47.57A4.64,4.64,0,0,0,32.51,130L65,129.93a4.65,4.65,0,0,0,4.62-4.65V97.51a4.64,4.64,0,0,1,4.64-4.65H92.87a4.65,4.65,0,0,1,4.65,4.65v27.75a4.64,4.64,0,0,0,4.63,4.66h0l32.51.09a4.65,4.65,0,0,0,4.65-4.64V77.77l-53.5-44a3.52,3.52,0,0,0-4.44,0Zm84.52,30-24.26-20V3.48A3.48,3.48,0,0,0,138.16,0H121.9a3.48,3.48,0,0,0-3.48,3.48V24.56l-26-21.38a13.94,13.94,0,0,0-17.71,0L1.26,63.68A3.49,3.49,0,0,0,.8,68.59h0l7.4,9a3.48,3.48,0,0,0,4.9.47h0L81.38,21.83a3.52,3.52,0,0,1,4.44,0l68.27,56.23A3.49,3.49,0,0,0,159,77.6h0l7.4-9a3.49,3.49,0,0,0-.48-4.9l0,0Z" fill="#379f9f"/></svg>