<?xml version="1.0" encoding="UTF-8"?><svg id="b" xmlns="http://www.w3.org/2000/svg" viewBox="0 0 404.71 404.66"><g id="c"><g><path d="M202.38,0c-53.66,.06-105.1,21.4-143.04,59.34C21.4,97.29,.06,148.73,0,202.38c-.02,17.72,2.32,35.37,6.94,52.47,1.74,12.94,6.33,25.34,13.44,36.29,.28,.5,.56,.89,.89,1.4,21.53,43.21,57.8,77.31,102.27,96.12,44.46,18.81,94.19,21.11,140.2,6.46,46-14.64,85.26-45.25,110.67-86.3,25.41-41.05,35.31-89.84,27.9-137.54-7.41-47.71-31.63-91.19-68.3-122.61C297.36,17.27,250.67,0,202.39,0h-.01Z" fill="#fff"/><path d="M59.58,315.45l-1.73-1.57c-9.08-8.58-17.09-18.22-23.85-28.73l-1.01-1.62c-6.25-9.41-10.2-20.15-11.54-31.36-.4-4.9,.19-9.84,1.74-14.5,5.99-17.53,25.87-25.59,29.73-26.99,2-.73,4.04-1.32,6.11-1.79,2.42-.54,4.87-.91,7.34-1.12,2.44-.17,4.89-.17,7.34,0,16.66,1.48,32.8,6.54,47.32,14.84,3.08,1.62,6.11,3.25,9.07,4.93l10.7,5.82,3.19,1.85c4.54,2.69,8.85,5.21,12.99,7.5h0c20.13,11.05,41.45,19.77,63.56,25.98h.84c4.09,1.18,8.29,2.24,12.49,3.25,4.2,1.01,7.34,1.73,11.2,2.52l6.21,1.18c13.48,2.56,27.09,4.43,40.77,5.6,3.86,.34,7.73,.62,11.65,.84l8.96,.45h25.59c-6.66,2.97-13.21,5.6-19.66,8.01l-3.98,1.46c-4.59,1.62-9.07,3.02-13.55,4.31l-1.62,.5c-4.48,1.23-8.9,2.41-13.27,3.36-26.31,6.65-53.92,6.14-79.97-1.46-7.95-2.57-16.18-6.11-24.14-9.46-24.47-9.91-49.67-20.61-74.48-8.46-1.75,.85-3.45,1.78-5.09,2.8-2.09,1.33-4.11,2.77-6.05,4.31-1.96,1.52-3.83,3.14-5.6,4.87-8.96,8.68-14.39,20.37-15.23,32.82-9.24-5.32-14.95-9.35-16.02-10.14h0Z" fill="#3cd6d2"/><path d="M202.38,118.39c-22.28,0-43.64,8.85-59.4,24.6-15.75,15.75-24.6,37.12-24.6,59.4v2.46c-13.96-7.01-29.2-11.12-44.8-12.1,3.27-43.15,27.99-81.77,65.8-102.81,37.81-21.04,83.66-21.7,122.05-1.73,38.39,19.96,64.19,57.87,68.68,100.9-6.27,2.91-12.77,6.55-19.77,10.47-5.6,3.3-11.98,6.72-18.82,10.25-2.13,1.12-4.26,2.13-6.38,3.14h0c.64-3.5,1.05-7.03,1.23-10.58,0-22.28-8.85-43.65-24.6-59.4-15.75-15.75-37.12-24.6-59.4-24.6h0Z" fill="#ef9722"/><path d="M271.54,202.39c-.02,6.11-.84,12.2-2.46,18.09-21.96,9.28-44.79,16.35-68.15,21.11l-8.9,1.79c-9.59-3.94-18.93-8.43-28-13.44-4.03-2.24-8.29-4.7-12.71-7.28-5.6-3.25-11.2-6.61-17.14-9.86-3-19.05,2.11-38.5,14.08-53.62,11.97-15.12,29.73-24.56,48.96-26.02,19.23-1.46,38.21,5.19,52.32,18.34,14.11,13.15,22.09,31.6,22,50.89h0Z" fill="#efbe22"/><path d="M335.72,323.91c-12.19,13.83-26.41,25.72-42.17,35.28-59.47,35.56-141.06,36.68-181.95,2.41-1.18-.95-2.63-2.18-4.26-3.64h0c-4.37-4-8.19-8.55-11.37-13.55-2.09-3.23-3.66-6.76-4.65-10.47-.63-2.47-.95-5.01-.95-7.56,.71-8.51,4.5-16.47,10.64-22.4,1.73-1.8,3.6-3.45,5.6-4.93,1.94-1.6,4-3.04,6.16-4.31,.45,0,.89-.56,1.34-.73,18.7-9.18,39.54,0,61.6,9.18,8.23,3.53,16.8,7.22,25.43,9.97,17.54,5.55,35.95,7.87,54.32,6.83,6.49-.34,12.96-1.04,19.38-2.07,5.6-.89,11.54-2.07,17.41-3.47,16.34-3.99,32.3-9.39,47.71-16.12,4.93-2.13,9.91-4.43,14.89-6.83l6.83-3.36h0c-7.36,12.82-16.07,24.82-25.98,35.78h0Z" fill="#20c1f2"/><path d="M363.72,267.24c-11.46,.75-22.66,1.08-33.6,1.01h-16.91c-17.62-.62-35.19-2.38-52.59-5.26-3.02-.56-6.05-1.06-9.02-1.68-2.97-.62-6.44-1.23-9.57-1.96-5.6-1.23-10.92-2.63-16.24-4.14l-4.87-2.86h0c13.44-3.36,26.68-7.47,39.65-12.32,3.64-1.34,7.22-2.86,10.81-4.37,3.59-1.51,6.5-2.57,9.63-3.98,5.97-2.61,11.85-5.41,17.64-8.4,7.11-3.64,13.61-7.34,19.32-10.53,5.71-3.19,9.18-5.15,13.16-7.17,2.63-1.4,5.1-2.52,7.39-3.53h0c2.37-1.04,4.8-1.91,7.28-2.64,5.08-1.62,10.54-1.62,15.62,0,6.72,2.79,12.52,7.43,16.71,13.37,4.19,5.95,6.61,12.96,6.98,20.23,.06,8.57-3.97,21.17-21.56,34.21h.17Z" fill="#9df2f9"/><path d="M390.2,203.74c-5.81-8.49-14.13-14.95-23.8-18.48-6.92-2.41-14.38-2.77-21.5-1.06-6.17-47.65-35.78-89.05-78.87-110.3s-93.96-19.52-135.52,4.6c-41.55,24.12-68.29,67.43-71.21,115.39-3.81,.68-7.56,1.67-11.2,2.97-12.82,4.64-24.02,12.88-32.25,23.74-.68-6.04-1.06-12.12-1.12-18.2,1.2-48.96,21.49-95.52,56.54-129.72C106.31,38.47,153.34,19.32,202.32,19.32s96.01,19.15,131.06,53.35c35.05,34.2,55.34,80.76,56.54,129.72l.29,1.34Z" fill="#cc7032"/></g></g></svg>